<svg width="70" height="64" viewBox="0 0 70 64" fill="none" xmlns="http://www.w3.org/2000/svg">
<path d="M41.5 31C42.8807 31 44 29.8807 44 28.5C44 27.1193 42.8807 26 41.5 26C40.1193 26 39 27.1193 39 28.5C39 29.8807 40.1193 31 41.5 31Z" stroke="white" stroke-width="2" stroke-linecap="round" stroke-linejoin="round"/>
<path d="M28.5 31C29.8807 31 31 29.8807 31 28.5C31 27.1193 29.8807 26 28.5 26C27.1193 26 26 27.1193 26 28.5C26 29.8807 27.1193 31 28.5 31Z" stroke="white" stroke-width="2" stroke-linecap="round" stroke-linejoin="round"/>
<path d="M39 18H43L46 21V26H39V18Z" stroke="white" stroke-width="2" stroke-linecap="round" stroke-linejoin="round"/>
<path d="M39 13H24V26H39V13Z" stroke="white" stroke-width="2" stroke-linecap="round" stroke-linejoin="round"/>
<path d="M29.4419 42.868C29.2739 42.132 28.9619 41.608 28.5059 41.296C28.0499 40.984 27.4539 40.828 26.7179 40.828C26.1979 40.828 25.7499 40.932 25.3739 41.14C24.9979 41.348 24.6859 41.628 24.4379 41.98C24.1979 42.332 24.0179 42.74 23.8979 43.204C23.7859 43.66 23.7299 44.144 23.7299 44.656C23.7299 45.136 23.7779 45.608 23.8739 46.072C23.9779 46.536 24.1459 46.952 24.3779 47.32C24.6099 47.68 24.9219 47.972 25.3139 48.196C25.7059 48.42 26.1979 48.532 26.7899 48.532C27.1579 48.532 27.4939 48.472 27.7979 48.352C28.1019 48.232 28.3659 48.068 28.5899 47.86C28.8219 47.644 29.0139 47.392 29.1659 47.104C29.3259 46.816 29.4459 46.5 29.5259 46.156H30.3779C30.2819 46.572 30.1419 46.968 29.9579 47.344C29.7739 47.712 29.5299 48.036 29.2259 48.316C28.9299 48.596 28.5659 48.82 28.1339 48.988C27.7099 49.148 27.2099 49.228 26.6339 49.228C25.9699 49.228 25.4019 49.108 24.9299 48.868C24.4579 48.62 24.0699 48.288 23.7659 47.872C23.4699 47.456 23.2539 46.976 23.1179 46.432C22.9819 45.88 22.9139 45.296 22.9139 44.68C22.9139 43.856 23.0139 43.156 23.2139 42.58C23.4219 42.004 23.7059 41.536 24.0659 41.176C24.4259 40.808 24.8499 40.544 25.3379 40.384C25.8259 40.216 26.3579 40.132 26.9339 40.132C27.3739 40.132 27.7819 40.192 28.1579 40.312C28.5419 40.424 28.8779 40.596 29.1659 40.828C29.4619 41.06 29.7019 41.348 29.8859 41.692C30.0779 42.028 30.2099 42.42 30.2819 42.868H29.4419ZM35.93 45.736C35.626 45.864 35.318 45.948 35.006 45.988C34.694 46.028 34.382 46.06 34.07 46.084C33.518 46.124 33.086 46.248 32.774 46.456C32.47 46.664 32.318 46.98 32.318 47.404C32.318 47.596 32.354 47.764 32.426 47.908C32.506 48.044 32.606 48.16 32.726 48.256C32.854 48.344 32.998 48.412 33.158 48.46C33.326 48.5 33.494 48.52 33.662 48.52C33.95 48.52 34.23 48.484 34.502 48.412C34.774 48.34 35.014 48.232 35.222 48.088C35.438 47.936 35.61 47.748 35.738 47.524C35.866 47.292 35.93 47.02 35.93 46.708V45.736ZM34.718 45.376C34.854 45.36 35.014 45.336 35.198 45.304C35.39 45.272 35.546 45.228 35.666 45.172C35.786 45.116 35.858 45.024 35.882 44.896C35.914 44.76 35.93 44.636 35.93 44.524C35.93 44.156 35.81 43.856 35.57 43.624C35.338 43.384 34.942 43.264 34.382 43.264C34.134 43.264 33.906 43.288 33.698 43.336C33.49 43.376 33.306 43.452 33.146 43.564C32.994 43.668 32.866 43.812 32.762 43.996C32.666 44.172 32.602 44.396 32.57 44.668H31.838C31.862 44.3 31.946 43.988 32.09 43.732C32.234 43.468 32.418 43.256 32.642 43.096C32.874 42.928 33.138 42.808 33.434 42.736C33.738 42.656 34.058 42.616 34.394 42.616C34.706 42.616 34.998 42.652 35.27 42.724C35.55 42.788 35.79 42.896 35.99 43.048C36.198 43.192 36.358 43.388 36.47 43.636C36.59 43.884 36.65 44.188 36.65 44.548V47.932C36.65 48.212 36.698 48.392 36.794 48.472C36.898 48.544 37.102 48.524 37.406 48.412V48.976C37.35 48.992 37.266 49.016 37.154 49.048C37.05 49.08 36.946 49.096 36.842 49.096C36.73 49.096 36.622 49.084 36.518 49.06C36.398 49.044 36.302 49.008 36.23 48.952C36.158 48.888 36.098 48.816 36.05 48.736C36.01 48.648 35.982 48.556 35.966 48.46C35.95 48.356 35.942 48.248 35.942 48.136C35.638 48.472 35.29 48.728 34.898 48.904C34.506 49.08 34.082 49.168 33.626 49.168C33.354 49.168 33.09 49.132 32.834 49.06C32.586 48.988 32.366 48.876 32.174 48.724C31.982 48.572 31.83 48.388 31.718 48.172C31.606 47.948 31.55 47.684 31.55 47.38C31.55 46.324 32.274 45.7 33.722 45.508L34.718 45.376ZM39.286 49H38.566V42.784H39.286V43.948H39.31C39.51 43.452 39.766 43.108 40.078 42.916C40.398 42.716 40.818 42.616 41.338 42.616V43.396C40.93 43.388 40.594 43.452 40.33 43.588C40.066 43.724 39.854 43.908 39.694 44.14C39.542 44.372 39.434 44.648 39.37 44.968C39.314 45.28 39.286 45.608 39.286 45.952V49ZM42.9461 47.056C43.0581 47.592 43.2581 47.972 43.5461 48.196C43.8421 48.412 44.2621 48.52 44.8061 48.52C45.0701 48.52 45.2981 48.488 45.4901 48.424C45.6821 48.36 45.8381 48.276 45.9581 48.172C46.0861 48.06 46.1821 47.936 46.2461 47.8C46.3101 47.664 46.3421 47.52 46.3421 47.368C46.3421 47.064 46.2421 46.84 46.0421 46.696C45.8501 46.544 45.6061 46.428 45.3101 46.348C45.0141 46.26 44.6941 46.188 44.3501 46.132C44.0061 46.068 43.6861 45.976 43.3901 45.856C43.0941 45.736 42.8461 45.564 42.6461 45.34C42.4541 45.116 42.3581 44.8 42.3581 44.392C42.3581 43.872 42.5461 43.448 42.9221 43.12C43.3061 42.784 43.8461 42.616 44.5421 42.616C45.2141 42.616 45.7581 42.768 46.1741 43.072C46.5981 43.368 46.8541 43.868 46.9421 44.572H46.2101C46.1461 44.092 45.9621 43.756 45.6581 43.564C45.3621 43.364 44.9861 43.264 44.5301 43.264C44.0741 43.264 43.7261 43.364 43.4861 43.564C43.2461 43.756 43.1261 44.012 43.1261 44.332C43.1261 44.612 43.2221 44.828 43.4141 44.98C43.6141 45.124 43.8621 45.244 44.1581 45.34C44.4541 45.428 44.7741 45.508 45.1181 45.58C45.4621 45.652 45.7821 45.756 46.0781 45.892C46.3741 46.02 46.6181 46.196 46.8101 46.42C47.0101 46.644 47.1101 46.956 47.1101 47.356C47.1101 47.652 47.0461 47.916 46.9181 48.148C46.7901 48.372 46.6141 48.56 46.3901 48.712C46.1661 48.864 45.8981 48.976 45.5861 49.048C45.2821 49.128 44.9461 49.168 44.5781 49.168C44.2101 49.168 43.8821 49.112 43.5941 49C43.3141 48.896 43.0741 48.748 42.8741 48.556C42.6741 48.364 42.5181 48.14 42.4061 47.884C42.2941 47.628 42.2301 47.352 42.2141 47.056H42.9461Z" fill="white"/>
</svg>
