<svg width="70" height="64" viewBox="0 0 70 64" fill="none" xmlns="http://www.w3.org/2000/svg">
<rect width="70" height="64" fill="white" fill-opacity="0.3"/>
<path d="M26 19L35 12L44 19V30C44 30.5304 43.7893 31.0391 43.4142 31.4142C43.0391 31.7893 42.5304 32 42 32H28C27.4696 32 26.9609 31.7893 26.5858 31.4142C26.2107 31.0391 26 30.5304 26 30V19Z" stroke="white" stroke-width="2" stroke-linecap="round" stroke-linejoin="round"/>
<path d="M32 32V22H38V32" stroke="white" stroke-width="2" stroke-linecap="round" stroke-linejoin="round"/>
<path d="M6.30078 41.8633V47.5H7.96484C8.81641 47.5 9.41016 47.0801 9.74609 46.2402C9.92969 45.7793 10.0215 45.2305 10.0215 44.5938C10.0215 43.7148 9.88281 43.041 9.60547 42.5723C9.33203 42.0996 8.78516 41.8633 7.96484 41.8633H6.30078ZM8.26953 40.3633C8.80469 40.3711 9.25 40.4336 9.60547 40.5508C10.2109 40.75 10.7012 41.1152 11.0762 41.6465C11.377 42.0762 11.582 42.541 11.6914 43.041C11.8008 43.541 11.8555 44.0176 11.8555 44.4707C11.8555 45.6191 11.625 46.5918 11.1641 47.3887C10.5391 48.4629 9.57422 49 8.26953 49H4.54883V40.3633H8.26953ZM16.6074 45.8945C16.502 45.9609 16.3945 46.0156 16.2852 46.0586C16.1797 46.0977 16.0332 46.1348 15.8457 46.1699L15.4707 46.2402C15.1191 46.3027 14.8672 46.3789 14.7148 46.4688C14.457 46.6211 14.3281 46.8574 14.3281 47.1777C14.3281 47.4629 14.4062 47.6699 14.5625 47.7988C14.7227 47.9238 14.916 47.9863 15.1426 47.9863C15.502 47.9863 15.832 47.8809 16.1328 47.6699C16.4375 47.459 16.5957 47.0742 16.6074 46.5156V45.8945ZM15.5938 45.1152C15.9023 45.0762 16.123 45.0273 16.2559 44.9688C16.4941 44.8672 16.6133 44.709 16.6133 44.4941C16.6133 44.2324 16.5215 44.0527 16.3379 43.9551C16.1582 43.8535 15.8926 43.8027 15.541 43.8027C15.1465 43.8027 14.8672 43.9004 14.7031 44.0957C14.5859 44.2402 14.5078 44.4355 14.4688 44.6816H12.8574C12.8926 44.123 13.0488 43.6641 13.3262 43.3047C13.7676 42.7422 14.5254 42.4609 15.5996 42.4609C16.2988 42.4609 16.9199 42.5996 17.4629 42.877C18.0059 43.1543 18.2773 43.6777 18.2773 44.4473V47.377C18.2773 47.5801 18.2812 47.8262 18.2891 48.1152C18.3008 48.334 18.334 48.4824 18.3887 48.5605C18.4434 48.6387 18.5254 48.7031 18.6348 48.7539V49H16.8184C16.7676 48.8711 16.7324 48.75 16.7129 48.6367C16.6934 48.5234 16.6777 48.3945 16.666 48.25C16.4355 48.5 16.1699 48.7129 15.8691 48.8887C15.5098 49.0957 15.1035 49.1992 14.6504 49.1992C14.0723 49.1992 13.5938 49.0352 13.2148 48.707C12.8398 48.375 12.6523 47.9062 12.6523 47.3008C12.6523 46.5156 12.9551 45.9473 13.5605 45.5957C13.8926 45.4043 14.3809 45.2676 15.0254 45.1855L15.5938 45.1152ZM21.0664 46.9609C21.1016 47.2578 21.1777 47.4688 21.2949 47.5938C21.502 47.8164 21.8848 47.9277 22.4434 47.9277C22.7715 47.9277 23.0312 47.8789 23.2227 47.7812C23.418 47.6836 23.5156 47.5371 23.5156 47.3418C23.5156 47.1543 23.4375 47.0117 23.2812 46.9141C23.125 46.8164 22.5449 46.6484 21.541 46.4102C20.8184 46.2305 20.3086 46.0059 20.0117 45.7363C19.7148 45.4707 19.5664 45.0879 19.5664 44.5879C19.5664 43.998 19.7969 43.4922 20.2578 43.0703C20.7227 42.6445 21.375 42.4316 22.2148 42.4316C23.0117 42.4316 23.6602 42.5918 24.1602 42.9121C24.6641 43.2285 24.9531 43.7773 25.0273 44.5586H23.3574C23.334 44.3438 23.2734 44.1738 23.1758 44.0488C22.9922 43.8223 22.6797 43.709 22.2383 43.709C21.875 43.709 21.6152 43.7656 21.459 43.8789C21.3066 43.9922 21.2305 44.125 21.2305 44.2773C21.2305 44.4688 21.3125 44.6074 21.4766 44.6934C21.6406 44.7832 22.2207 44.9375 23.2168 45.1562C23.8809 45.3125 24.3789 45.5488 24.7109 45.8652C25.0391 46.1855 25.2031 46.5859 25.2031 47.0664C25.2031 47.6992 24.9668 48.2168 24.4941 48.6191C24.0254 49.0176 23.2988 49.2168 22.3145 49.2168C21.3105 49.2168 20.5684 49.0059 20.0879 48.584C19.6113 48.1582 19.373 47.6172 19.373 46.9609H21.0664ZM29.9668 42.4492C30.3613 42.4492 30.7188 42.5176 31.0391 42.6543C31.3633 42.791 31.6289 43 31.8359 43.2812C32.0117 43.5195 32.1191 43.7656 32.1582 44.0195C32.1973 44.2695 32.2168 44.6797 32.2168 45.25V49H30.5117V45.1152C30.5117 44.7715 30.4531 44.4941 30.3359 44.2832C30.1836 43.9863 29.8945 43.8379 29.4688 43.8379C29.0273 43.8379 28.6914 43.9863 28.4609 44.2832C28.2344 44.5762 28.1211 44.9961 28.1211 45.543V49H26.457V40.3926H28.1211V43.4453C28.3633 43.0742 28.6426 42.8164 28.959 42.6719C29.2793 42.5234 29.6152 42.4492 29.9668 42.4492ZM37.2324 42.4727C38.0723 42.4727 38.7285 42.7754 39.2012 43.3809C39.6777 43.9863 39.916 44.7676 39.916 45.7246C39.916 46.7168 39.6816 47.5391 39.2129 48.1914C38.7441 48.8438 38.0898 49.1699 37.25 49.1699C36.7227 49.1699 36.2988 49.0645 35.9785 48.8535C35.7871 48.7285 35.5801 48.5098 35.3574 48.1973V49H33.7227V40.375H35.3867V43.4453C35.5977 43.1484 35.8301 42.9219 36.084 42.7656C36.3848 42.5703 36.7676 42.4727 37.2324 42.4727ZM36.8047 47.793C37.2344 47.793 37.5684 47.6191 37.8066 47.2715C38.0449 46.9238 38.1641 46.4668 38.1641 45.9004C38.1641 45.4473 38.1055 45.0723 37.9883 44.7754C37.7656 44.2129 37.3555 43.9316 36.7578 43.9316C36.1523 43.9316 35.7363 44.207 35.5098 44.7578C35.3926 45.0508 35.334 45.4297 35.334 45.8945C35.334 46.4414 35.4551 46.8945 35.6973 47.2539C35.9395 47.6133 36.3086 47.793 36.8047 47.793ZM43.9824 47.8223C44.4707 47.8223 44.8457 47.6484 45.1074 47.3008C45.3691 46.9531 45.5 46.459 45.5 45.8184C45.5 45.1777 45.3691 44.6855 45.1074 44.3418C44.8457 43.9941 44.4707 43.8203 43.9824 43.8203C43.4941 43.8203 43.1172 43.9941 42.8516 44.3418C42.5898 44.6855 42.459 45.1777 42.459 45.8184C42.459 46.459 42.5898 46.9531 42.8516 47.3008C43.1172 47.6484 43.4941 47.8223 43.9824 47.8223ZM47.252 45.8184C47.252 46.7559 46.9824 47.5586 46.4434 48.2266C45.9043 48.8906 45.0859 49.2227 43.9883 49.2227C42.8906 49.2227 42.0723 48.8906 41.5332 48.2266C40.9941 47.5586 40.7246 46.7559 40.7246 45.8184C40.7246 44.8965 40.9941 44.0977 41.5332 43.4219C42.0723 42.7461 42.8906 42.4082 43.9883 42.4082C45.0859 42.4082 45.9043 42.7461 46.4434 43.4219C46.9824 44.0977 47.252 44.8965 47.252 45.8184ZM51.9746 45.8945C51.8691 45.9609 51.7617 46.0156 51.6523 46.0586C51.5469 46.0977 51.4004 46.1348 51.2129 46.1699L50.8379 46.2402C50.4863 46.3027 50.2344 46.3789 50.082 46.4688C49.8242 46.6211 49.6953 46.8574 49.6953 47.1777C49.6953 47.4629 49.7734 47.6699 49.9297 47.7988C50.0898 47.9238 50.2832 47.9863 50.5098 47.9863C50.8691 47.9863 51.1992 47.8809 51.5 47.6699C51.8047 47.459 51.9629 47.0742 51.9746 46.5156V45.8945ZM50.9609 45.1152C51.2695 45.0762 51.4902 45.0273 51.623 44.9688C51.8613 44.8672 51.9805 44.709 51.9805 44.4941C51.9805 44.2324 51.8887 44.0527 51.7051 43.9551C51.5254 43.8535 51.2598 43.8027 50.9082 43.8027C50.5137 43.8027 50.2344 43.9004 50.0703 44.0957C49.9531 44.2402 49.875 44.4355 49.8359 44.6816H48.2246C48.2598 44.123 48.416 43.6641 48.6934 43.3047C49.1348 42.7422 49.8926 42.4609 50.9668 42.4609C51.666 42.4609 52.2871 42.5996 52.8301 42.877C53.373 43.1543 53.6445 43.6777 53.6445 44.4473V47.377C53.6445 47.5801 53.6484 47.8262 53.6562 48.1152C53.668 48.334 53.7012 48.4824 53.7559 48.5605C53.8105 48.6387 53.8926 48.7031 54.002 48.7539V49H52.1855C52.1348 48.8711 52.0996 48.75 52.0801 48.6367C52.0605 48.5234 52.0449 48.3945 52.0332 48.25C51.8027 48.5 51.5371 48.7129 51.2363 48.8887C50.877 49.0957 50.4707 49.1992 50.0176 49.1992C49.4395 49.1992 48.9609 49.0352 48.582 48.707C48.207 48.375 48.0195 47.9062 48.0195 47.3008C48.0195 46.5156 48.3223 45.9473 48.9277 45.5957C49.2598 45.4043 49.748 45.2676 50.3926 45.1855L50.9609 45.1152ZM58.6016 42.4609C58.6328 42.4609 58.6582 42.4629 58.6777 42.4668C58.7012 42.4668 58.75 42.4688 58.8242 42.4727V44.1836C58.7188 44.1719 58.625 44.1641 58.543 44.1602C58.4609 44.1562 58.3945 44.1543 58.3438 44.1543C57.6719 44.1543 57.2207 44.373 56.9902 44.8105C56.8613 45.0566 56.7969 45.4355 56.7969 45.9473V49H55.1152V42.6133H56.709V43.7266C56.9668 43.3008 57.1914 43.0098 57.3828 42.8535C57.6953 42.5918 58.1016 42.4609 58.6016 42.4609ZM62.1641 42.4609C62.5508 42.4609 62.8945 42.5469 63.1953 42.7188C63.4961 42.8867 63.7402 43.1211 63.9277 43.4219V40.375H65.6211V49H63.998V48.1152C63.7598 48.4941 63.4883 48.7695 63.1836 48.9414C62.8789 49.1133 62.5 49.1992 62.0469 49.1992C61.3008 49.1992 60.6719 48.8984 60.1602 48.2969C59.6523 47.6914 59.3984 46.916 59.3984 45.9707C59.3984 44.8809 59.6484 44.0234 60.1484 43.3984C60.6523 42.7734 61.3242 42.4609 62.1641 42.4609ZM62.5273 47.793C63 47.793 63.3594 47.6172 63.6055 47.2656C63.8516 46.9141 63.9746 46.459 63.9746 45.9004C63.9746 45.1191 63.7773 44.5605 63.3828 44.2246C63.1406 44.0215 62.8594 43.9199 62.5391 43.9199C62.0508 43.9199 61.6914 44.1055 61.4609 44.4766C61.2344 44.8438 61.1211 45.3008 61.1211 45.8477C61.1211 46.4375 61.2363 46.9102 61.4668 47.2656C61.7012 47.6172 62.0547 47.793 62.5273 47.793Z" fill="white"/>
</svg>
