<svg width="13" height="18" viewBox="0 0 13 18" fill="none" xmlns="http://www.w3.org/2000/svg">
<path d="M3.25 4.5V3C3.25 2.60218 3.40804 2.22064 3.68934 1.93934C3.97064 1.65804 4.35218 1.5 4.75 1.5H7.75C8.14782 1.5 8.52936 1.65804 8.81066 1.93934C9.09196 2.22064 9.25 2.60218 9.25 3V4.5M11.5 4.5V15C11.5 15.3978 11.342 15.7794 11.0607 16.0607C10.7794 16.342 10.3978 16.5 10 16.5H2.5C2.10218 16.5 1.72064 16.342 1.43934 16.0607C1.15804 15.7794 1 15.3978 1 15V4.5H11.5Z" stroke="#FA2C5A" stroke-width="2" stroke-linecap="round" stroke-linejoin="round"/>
</svg>
